<?xml version="1.0" standalone="no"?>
<!DOCTYPE svg PUBLIC "-//W3C//DTD SVG 20010904//EN"
 "http://www.w3.org/TR/2001/REC-SVG-20010904/DTD/svg10.dtd">
<svg version="1.0" xmlns="http://www.w3.org/2000/svg"
 width="370.000000pt" height="412.000000pt" viewBox="0 0 370.000000 412.000000"
 preserveAspectRatio="xMidYMid meet">

<g transform="translate(0.000000,412.000000) scale(0.100000,-0.100000)"
fill="#000000" stroke="none">
<path d="M1340 4025 c-8 -2 -41 -7 -73 -10 -31 -4 -55 -10 -52 -15 3 -4 20 -4
39 0 49 11 193 12 200 2 3 -5 19 -9 35 -10 16 0 47 -10 70 -21 49 -25 166 -31
141 -7 -36 33 -134 59 -240 62 -58 1 -112 1 -120 -1z"/>
<path d="M1265 3983 c-19 -6 -50 -14 -70 -17 -44 -7 -126 -48 -146 -73 -15
-19 -16 -19 64 31 33 22 174 48 221 42 71 -11 216 -19 216 -13 0 25 -230 49
-285 30z"/>
<path d="M1915 3963 c-58 -13 -87 -26 -75 -33 8 -5 27 -7 44 -5 107 13 130 14
116 5 -22 -14 -9 -20 64 -28 53 -7 73 -14 99 -38 26 -24 28 -24 9 -3 -12 14
-19 29 -15 32 3 4 -2 7 -13 7 -10 0 -37 9 -59 20 l-40 20 40 -6 c22 -3 56 -7
75 -9 19 -1 67 -17 105 -34 79 -36 78 -26 -2 13 -88 45 -274 76 -348 59z"/>
<path d="M1215 3900 c-13 -5 -14 -9 -5 -9 8 0 24 4 35 9 13 5 14 9 5 9 -8 0
-24 -4 -35 -9z"/>
<path d="M1168 3883 c7 -3 16 -2 19 1 4 3 -2 6 -13 5 -11 0 -14 -3 -6 -6z"/>
<path d="M2238 3854 c39 -19 80 -46 91 -60 10 -13 22 -24 27 -24 4 0 -8 16
-26 35 -42 44 -111 85 -141 85 -13 0 6 -14 49 -36z"/>
<path d="M969 3863 c-13 -16 -12 -17 4 -4 9 7 17 15 17 17 0 8 -8 3 -21 -13z"/>
<path d="M1116 3871 c-4 -5 3 -7 14 -4 23 6 26 13 6 13 -8 0 -17 -4 -20 -9z"/>
<path d="M970 3795 c-7 -8 -8 -15 -2 -15 5 0 15 7 22 15 7 8 8 15 2 15 -5 0
-15 -7 -22 -15z"/>
<path d="M1743 3771 c-154 -53 -265 -186 -294 -349 -23 -131 32 -299 132 -404
40 -43 47 -47 35 -23 -8 17 -26 41 -41 55 -88 82 -108 280 -41 425 35 78 111
148 171 159 6 1 15 4 20 7 6 4 18 5 28 4 9 -2 17 0 17 5 0 5 8 7 18 5 9 -1 23
3 31 9 12 9 13 8 6 -4 -7 -12 -6 -13 7 -3 8 7 17 11 19 9 2 -2 33 -7 69 -10
79 -8 176 -32 210 -52 l25 -15 -26 23 c-14 13 -35 29 -45 36 -10 7 0 3 22 -7
60 -29 129 -102 163 -174 36 -77 57 -217 42 -292 -5 -27 -7 -52 -5 -54 13 -13
19 22 22 119 5 141 -10 191 -85 296 -87 121 -141 176 -215 217 -62 35 -72 37
-150 37 -53 -1 -102 -7 -135 -19z"/>
<path d="M2456 3637 c3 -10 9 -15 12 -12 3 3 0 11 -7 18 -10 9 -11 8 -5 -6z"/>
<path d="M1221 3381 c-7 -38 -18 -72 -24 -75 -8 -4 -8 -8 -2 -11 6 -3 9 -37 7
-80 -3 -54 -7 -73 -15 -68 -8 5 -8 2 0 -8 10 -12 10 -18 1 -27 -9 -9 -8 -12 5
-12 10 0 20 -7 23 -15 9 -21 24 -19 24 4 0 11 8 22 18 25 24 8 24 36 1 36 -22
0 -29 77 -16 175 14 95 14 117 1 122 -6 2 -16 -25 -23 -66z"/>
<path d="M1075 3410 c-16 -4 -73 -16 -125 -25 -101 -19 -206 -50 -280 -83 -54
-24 -91 -51 -71 -52 11 0 10 -5 -3 -25 -23 -35 -21 -48 7 -34 l22 12 -20 -22
-19 -22 28 10 c40 16 40 15 4 -23 -65 -67 -89 -119 -70 -152 11 -18 11 -18 12
2 0 50 76 93 205 118 101 19 331 40 345 31 5 -3 10 2 11 12 0 10 4 43 9 73 5
30 11 85 14 123 5 74 3 76 -69 57z"/>
<path d="M1715 3326 c-37 -16 -82 -67 -91 -102 -4 -14 -4 -48 -2 -75 12 -125
157 -204 268 -147 60 31 90 77 90 139 0 59 -13 95 -48 133 -55 59 -150 81
-217 52z m95 -52 c11 -12 11 -18 -2 -30 -18 -18 -48 -8 -48 15 0 33 28 42 50
15z m100 -74 c0 -5 -2 -10 -4 -10 -3 0 -8 5 -11 10 -3 6 -1 10 4 10 6 0 11 -4
11 -10z m9 -34 c10 -12 8 -13 -8 -9 -12 3 -18 9 -15 14 7 12 10 11 23 -5z m-4
-66 c17 -7 17 -9 3 -9 -10 -1 -18 -6 -18 -12 0 -5 -4 -7 -10 -4 -12 7 -14 35
-2 34 4 0 16 -4 27 -9z m-62 -46 c1 -4 -9 -9 -23 -11 -24 -3 -24 -3 -5 15 18
17 23 17 28 -4z"/>
<path d="M2486 3164 c-4 -14 -5 -28 -3 -31 3 -2 8 8 11 23 4 14 5 28 3 31 -3
2 -8 -8 -11 -23z"/>
<path d="M2515 3178 c-2 -7 -14 -40 -26 -73 -12 -33 -24 -82 -28 -110 -5 -43
-9 -50 -26 -47 -14 2 -26 -8 -39 -30 -19 -33 -19 -33 1 -15 23 20 44 22 62 5
11 -11 12 -10 6 2 -5 9 1 7 15 -5 14 -12 20 -14 15 -5 -5 9 1 7 15 -5 13 -11
20 -13 15 -6 -5 8 7 4 25 -9 18 -13 30 -18 26 -11 -7 10 -4 11 10 3 31 -16 64
-57 73 -88 l9 -29 15 35 c19 46 20 189 1 244 -17 46 -50 85 -111 127 -47 33
-52 34 -58 17z"/>
<path d="M1468 2973 c30 -55 193 -153 312 -187 70 -20 200 -25 200 -8 0 4 -31
8 -70 9 -133 3 -283 65 -402 165 -34 28 -47 35 -40 21z"/>
<path d="M1408 2913 c7 -3 16 -2 19 1 4 3 -2 6 -13 5 -11 0 -14 -3 -6 -6z"/>
<path d="M1450 2866 c19 -21 49 -47 65 -58 35 -25 29 -18 -45 48 -44 39 -48
41 -20 10z"/>
<path d="M1514 2872 c8 -13 66 -56 66 -49 0 3 -17 17 -37 33 -20 15 -33 23
-29 16z"/>
<path d="M2040 2793 c-19 -3 -39 -9 -45 -15 -7 -6 3 -7 30 -3 22 4 45 7 52 8
7 0 10 4 7 9 -3 4 -6 7 -7 6 -1 0 -18 -3 -37 -5z"/>
<path d="M2233 2785 c-40 -28 -152 -65 -243 -79 -79 -13 -93 -13 -128 1 -26
10 -45 12 -56 6 -12 -7 -7 -9 19 -9 20 0 39 -5 43 -11 4 -6 18 -13 32 -16 21
-4 20 -4 -7 -6 -20 0 -33 4 -33 12 0 8 -2 9 -8 1 -11 -18 -189 -23 -241 -8
-82 24 -25 -6 90 -47 62 -23 120 -47 128 -53 12 -9 13 -8 6 4 -5 9 1 7 15 -5
13 -11 21 -15 17 -9 -4 7 7 10 31 9 20 -1 45 5 54 12 15 13 16 13 14 -4 -2
-14 -12 -18 -44 -17 -22 0 -39 -3 -36 -7 2 -4 12 -6 22 -4 9 1 22 -2 29 -7 7
-6 14 -5 18 2 5 8 12 7 23 -2 10 -7 14 -8 9 -3 -12 14 24 47 39 34 9 -7 12 -6
10 5 -1 9 -6 19 -11 23 -4 4 -5 3 -2 -4 7 -12 -18 -12 -28 0 -3 4 -2 5 2 2 3
-3 15 3 26 12 11 10 17 13 14 7 -4 -7 -1 -14 7 -17 10 -4 13 1 10 16 -2 12 -2
16 2 9 4 -8 11 -6 26 10 11 13 17 16 13 8 -4 -8 1 -6 9 4 9 11 16 17 16 13 0
-4 9 2 20 13 11 11 28 20 37 20 9 0 14 3 11 6 -10 10 68 74 91 74 11 0 21 5
21 10 0 15 -43 12 -67 -5z m-233 -199 c0 -2 -7 -9 -15 -16 -13 -11 -14 -10 -9
4 5 14 24 23 24 12z"/>
<path d="M3250 2441 c0 -6 5 -13 10 -16 6 -3 10 1 10 9 0 9 -4 16 -10 16 -5 0
-10 -4 -10 -9z"/>
<path d="M445 2309 c-10 -30 -2 -32 12 -3 6 13 7 24 3 24 -5 0 -12 -9 -15 -21z"/>
<path d="M2065 2281 c-34 -5 -37 -7 -20 -15 22 -10 30 -13 44 -15 5 0 11 -13
14 -27 4 -25 3 -26 -27 -21 -19 3 -39 -1 -51 -9 -30 -22 -147 -19 -176 5 -23
18 -25 18 -43 3 -27 -25 -187 -30 -222 -7 -21 14 -31 15 -51 6 -29 -13 -103
-15 -103 -2 0 21 73 31 330 47 58 4 107 8 109 10 2 2 -96 2 -218 0 -249 -5
-256 -7 -248 -67 12 -91 80 -172 185 -222 64 -31 72 -32 192 -32 140 0 203 18
282 78 60 46 110 143 112 215 l1 57 -35 1 c-19 1 -53 -1 -75 -5z"/>
<path d="M3340 2254 c-52 -13 -126 -26 -165 -29 -38 -3 -104 -13 -146 -22
l-77 -16 9 -31 c10 -35 12 -86 3 -86 -3 0 -26 18 -51 40 -58 51 -107 67 -157
50 -52 -17 -70 -49 -63 -112 4 -28 13 -61 22 -74 8 -13 15 -31 15 -40 0 -12
-6 -10 -31 10 -47 40 -100 32 -126 -18 -9 -16 -11 -14 -17 15 -6 31 -1 41 29
52 6 3 6 8 2 13 -4 5 -12 2 -17 -6 -6 -9 -10 -10 -10 -3 0 6 4 14 9 17 5 3 9
17 9 31 0 21 -3 23 -15 14 -11 -10 -12 -8 -4 14 9 22 8 25 -7 20 -9 -3 -22
-11 -27 -18 -11 -13 -65 -16 -65 -4 0 3 9 14 19 23 15 13 20 14 24 4 4 -9 6
-9 6 -1 3 49 -71 -23 -127 -123 -21 -40 -25 -51 -11 -34 l22 25 -6 -25 c-3
-14 -8 -36 -11 -49 -3 -14 -1 -30 5 -37 6 -7 8 -18 5 -23 -4 -5 1 -28 10 -50
11 -29 13 -45 5 -58 -6 -10 -11 -13 -11 -6 0 8 -15 7 -53 -6 -52 -18 -54 -18
-66 1 -6 10 -15 16 -20 14 -11 -7 -41 62 -44 101 -1 18 -5 33 -9 33 -14 0 -18
-40 -7 -59 10 -16 10 -23 -1 -36 -12 -14 -12 -18 1 -26 8 -5 17 -9 20 -9 4 0
14 -12 24 -26 16 -24 16 -26 -4 -31 -12 -3 -21 -8 -21 -12 0 -4 -8 -7 -17 -8
-10 -1 -30 -5 -45 -8 -23 -6 -29 -3 -46 31 -11 22 -25 56 -32 77 -17 53 -22
41 -6 -13 19 -63 38 -104 53 -113 20 -13 15 -26 -8 -20 -11 3 -39 0 -61 -8
-38 -12 -41 -12 -59 12 -10 13 -23 45 -30 72 -6 26 -15 50 -20 53 -5 3 -9 14
-9 25 0 12 -7 19 -20 19 -22 0 -27 15 -7 23 7 3 5 6 -5 6 -14 1 -18 -7 -18
-34 0 -48 48 -158 79 -182 14 -10 11 -14 -16 -23 -18 -7 -33 -16 -33 -21 0 -5
-10 -8 -22 -7 -13 1 -41 -4 -63 -10 -60 -18 -73 -15 -96 21 -21 32 -21 26 -3
-33 5 -14 2 -20 -10 -20 -8 0 -18 11 -22 25 -3 14 -10 25 -15 25 -5 0 -3 -11
3 -25 15 -34 6 -40 -31 -21 -16 9 -36 16 -43 16 -18 0 -66 112 -50 118 7 2 12
10 12 17 0 8 10 17 21 20 17 6 19 9 8 17 -11 8 -10 8 4 4 10 -3 23 -6 29 -6 6
0 5 -6 -2 -15 -16 -19 -7 -30 16 -21 10 4 14 13 11 25 -5 21 12 29 146 71 37
12 67 26 67 31 0 13 -17 11 -40 -3 -16 -10 -24 -10 -40 0 -12 7 -26 10 -32 6
-22 -14 -68 -12 -68 3 0 12 -3 12 -16 -1 -14 -14 -17 -14 -30 -1 -9 8 -20 15
-25 15 -6 0 -7 5 -4 10 3 6 2 10 -3 10 -6 0 -13 -7 -16 -16 -3 -8 -10 -12 -16
-9 -6 4 -8 11 -5 16 4 5 2 9 -4 9 -5 0 -12 -6 -14 -12 -4 -10 -6 -10 -6 0 -1
14 -31 17 -31 2 0 -5 -7 -10 -15 -10 -9 0 -12 6 -9 15 4 10 0 15 -15 15 -12 0
-21 -5 -21 -11 0 -5 -4 -8 -9 -4 -11 6 -7 -21 13 -88 10 -34 11 -47 3 -44 -6
2 -14 14 -17 26 -5 22 -6 21 -22 -13 -18 -37 -32 -45 -44 -25 -4 8 -9 7 -15
-2 -9 -15 -59 -20 -59 -7 0 4 4 8 9 8 15 0 1 139 -22 215 -19 63 -22 67 -27
40 l-6 -30 -14 37 c-15 42 -30 50 -79 44 -24 -3 -44 3 -69 20 -22 15 -49 24
-73 24 -33 0 -40 4 -45 25 -11 43 -59 75 -113 75 -46 0 -49 1 -66 40 -24 52
-30 46 -10 -11 l16 -43 -41 -41 c-28 -27 -39 -34 -35 -20 5 16 5 17 -3 5 -6
-8 -9 -17 -6 -22 2 -4 -20 -25 -50 -47 -30 -22 -57 -45 -61 -50 -3 -6 -20 -1
-41 11 -40 24 -94 20 -127 -9 -28 -25 -67 -112 -67 -150 0 -31 -1 -32 -26 -21
-24 11 -28 9 -55 -22 -45 -54 -67 -102 -58 -125 4 -11 8 -15 8 -8 1 7 7 10 14
7 7 -2 19 7 27 21 11 21 12 30 1 47 -7 11 -10 23 -7 26 3 3 6 -1 6 -9 0 -11 2
-11 10 1 8 13 10 12 10 -3 0 -14 5 -17 20 -12 14 5 20 2 20 -9 0 -9 5 -16 10
-16 6 0 10 5 10 11 0 5 5 7 10 4 6 -4 7 -11 4 -17 -4 -6 -2 -8 3 -5 6 4 19 -3
29 -15 11 -12 13 -18 5 -13 -11 6 -13 4 -8 -9 4 -11 3 -15 -4 -10 -8 4 -9 -4
-4 -27 9 -42 24 -61 18 -22 -5 28 -5 28 11 6 9 -11 17 -31 19 -42 2 -12 9 -27
15 -33 14 -14 16 -58 2 -58 -5 0 -7 8 -4 18 5 13 4 14 -4 3 -5 -7 -15 -10 -21
-7 -7 5 -11 -2 -12 -16 0 -13 -12 9 -25 49 -19 52 -31 74 -47 80 -12 4 -25 6
-29 5 -5 -1 -8 2 -8 8 0 5 -4 10 -10 10 -5 0 -7 -7 -4 -15 4 -9 0 -15 -10 -15
-22 0 -20 -8 7 -31 18 -16 20 -20 7 -28 -19 -13 -30 -5 -24 17 5 15 4 15 -5 1
-6 -9 -10 -45 -8 -81 l2 -64 -27 4 c-27 4 -58 -16 -58 -37 0 -16 18 -13 28 5
13 23 45 13 60 -19 10 -21 11 -32 2 -41 -6 -8 -10 -18 -9 -22 4 -22 -2 -34
-16 -34 -8 0 -15 -4 -15 -10 0 -5 5 -10 11 -10 13 0 35 -54 43 -110 9 -62 27
-88 22 -33 -2 23 1 40 5 37 5 -3 9 -13 9 -22 0 -12 3 -13 12 -4 9 9 7 17 -8
34 -12 15 -13 18 -3 10 14 -10 18 -10 23 3 3 8 12 15 21 15 20 0 20 -29 0 -36
-9 -4 -15 -11 -14 -18 1 -6 0 -22 -1 -36 -2 -18 -4 -20 -7 -7 -2 9 -9 15 -14
11 -5 -3 -7 -9 -4 -14 3 -5 -4 -11 -15 -15 -11 -3 -20 -10 -20 -15 0 -5 6 -7
14 -4 9 3 18 -5 24 -23 8 -20 11 -23 11 -9 1 11 4 16 8 13 3 -4 11 -3 17 2 23
17 48 22 43 8 -3 -8 1 -14 9 -14 8 0 14 5 14 11 0 6 18 19 40 29 43 18 43 19
23 92 -5 18 -4 18 11 3 9 -10 15 -23 14 -29 -2 -7 5 -15 15 -17 13 -3 16 2 13
20 -3 13 -5 27 -5 31 -1 5 -5 6 -10 3 -14 -9 -21 20 -8 35 7 7 2 5 -11 -5 -12
-11 -24 -17 -26 -15 -9 11 -14 56 -7 67 11 19 15 19 36 2 11 -8 16 -10 12 -3
-11 18 33 45 50 31 10 -8 13 -7 14 3 0 8 4 3 10 -9 5 -13 7 -27 5 -31 -3 -3 4
-18 15 -31 15 -20 18 -21 12 -5 -6 17 -5 18 10 7 8 -8 15 -19 13 -25 -1 -7 -1
-8 2 -4 2 4 33 -54 68 -129 35 -76 61 -141 56 -146 -4 -4 -16 -9 -27 -11 -11
-1 -27 -7 -35 -12 -8 -6 -49 -21 -91 -35 -65 -22 -75 -23 -66 -8 6 9 14 15 18
12 4 -2 9 7 11 20 4 17 1 23 -9 19 -7 -3 -10 -10 -6 -17 4 -6 -1 -5 -10 3 -18
14 -24 36 -7 26 6 -3 10 -1 10 5 0 25 -23 2 -35 -34 -18 -50 -10 -69 26 -64
18 3 30 -1 34 -9 2 -8 9 -11 15 -8 9 5 12 -1 9 -21 -1 -10 54 -44 62 -39 4 3
12 -2 18 -9 9 -10 9 -16 1 -21 -8 -5 -8 -11 1 -21 6 -7 15 -11 20 -8 5 3 9 0
9 -6 0 -7 7 -9 16 -6 8 3 12 2 9 -4 -3 -5 49 -37 116 -71 121 -61 159 -95 159
-141 0 -9 8 -21 17 -27 22 -12 18 -16 -64 -61 -83 -45 -106 -78 -97 -143 8
-53 15 -57 119 -57 99 1 217 24 252 49 19 14 52 24 93 29 l65 7 -3 75 c-2 41
-6 82 -8 92 -3 11 4 19 23 25 26 9 28 14 28 59 l0 49 49 3 c27 2 53 -1 57 -5
5 -5 5 -33 0 -62 -8 -53 -8 -54 21 -65 31 -12 30 1 12 -140 -5 -43 -3 -46 27
-62 21 -11 46 -14 71 -11 27 4 56 -2 96 -18 31 -13 89 -28 127 -34 100 -15
242 -16 258 -2 18 14 19 88 1 123 -16 32 -63 62 -124 79 -25 7 -51 18 -59 25
-13 12 -12 16 2 32 9 10 17 29 17 41 0 40 67 94 175 140 133 58 249 136 328
221 64 69 108 143 106 177 0 11 -6 5 -15 -15 -9 -21 -19 -30 -27 -26 -6 4 -9
3 -4 -1 10 -12 -23 -45 -46 -45 -11 0 -25 -7 -32 -17 -13 -18 -40 -9 -28 10 4
8 2 8 -9 -1 -13 -10 -16 -9 -21 8 -5 20 -27 29 -27 11 0 -6 -12 -4 -26 4 -15
7 -34 11 -43 8 -9 -3 -12 -1 -6 4 10 8 21 73 12 73 -3 0 -11 -8 -18 -17 -10
-11 -10 -14 -1 -9 7 4 12 1 12 -8 0 -21 -19 -20 -27 1 -6 15 -7 15 -14 -3 -4
-10 -8 -26 -8 -34 -1 -12 1 -12 8 -2 7 11 9 10 14 -3 4 -9 3 -13 -2 -10 -5 3
-12 1 -15 -4 -3 -5 -16 -7 -29 -5 -12 2 -16 2 -9 -2 6 -3 12 -10 12 -15 0 -6
-5 -7 -10 -4 -6 4 -22 -1 -36 -10 -14 -9 -28 -14 -32 -11 -3 3 -1 6 5 6 6 0 9
9 6 20 -4 16 -8 18 -19 9 -11 -9 -14 -8 -14 4 0 20 20 27 43 15 24 -13 26 -8
10 22 -7 14 -13 19 -13 12 0 -8 -6 -12 -12 -9 -7 2 -18 -3 -24 -11 -15 -20
-64 -25 -64 -6 0 9 5 12 11 8 8 -5 10 1 7 19 -5 28 10 41 37 30 9 -3 15 -2 14
3 -4 21 2 30 21 31 16 1 19 -3 14 -23 -5 -21 -3 -24 21 -24 14 0 24 4 21 9 -3
5 7 14 23 19 23 8 28 15 24 31 -3 14 -1 21 8 21 9 0 10 3 4 8 -15 10 -12 86 3
95 18 12 29 0 14 -15 -15 -15 -16 -48 -2 -48 6 0 10 -6 10 -12 0 -28 22 -88
37 -104 14 -13 14 -17 2 -26 -12 -8 -12 -9 1 -5 8 2 33 -4 55 -14 71 -32 102
-23 134 39 12 22 11 23 -8 12 -12 -6 -20 -16 -18 -22 1 -7 -5 -13 -13 -15 -13
-3 -15 7 -12 57 3 61 -10 96 -31 83 -6 -3 -7 -1 -3 5 4 7 15 12 24 12 15 0 15
2 2 10 -8 5 -11 10 -6 10 5 0 1 9 -9 20 -16 18 -20 19 -27 5 -16 -28 -29 -15
-13 14 19 38 2 51 -29 22 -26 -25 -51 -28 -42 -5 3 9 6 18 6 20 0 2 10 4 23 4
12 0 29 5 37 10 10 7 -5 10 -53 10 -63 0 -68 2 -62 19 5 16 2 18 -14 14 -15
-4 -20 0 -18 15 0 11 6 20 12 19 5 -1 9 8 8 21 -2 12 1 22 6 22 4 0 11 72 15
160 7 158 7 160 43 231 20 39 43 73 52 77 12 5 10 7 -9 12 -20 5 -26 14 -33
50 -4 25 -5 61 -2 80 3 19 6 40 7 47 1 7 5 10 9 8 4 -3 25 1 47 9 l40 14 7
-53 c3 -30 13 -59 21 -66 16 -13 18 -37 5 -58 -8 -12 -12 -12 -25 -2 -13 11
-16 11 -16 -2 0 -8 -6 -17 -14 -20 -8 -3 -13 -14 -11 -24 2 -10 7 -34 10 -55
4 -27 10 -35 23 -33 9 1 16 8 15 14 -3 10 11 15 31 12 4 -1 5 23 2 52 -9 70 8
79 55 29 57 -62 79 -98 79 -134 0 -70 78 -110 174 -89 44 10 63 21 95 56 49
54 68 108 50 150 -11 27 -20 185 -10 185 2 0 9 -7 15 -15 9 -12 18 -13 49 -4
23 6 43 6 53 1 11 -6 30 -5 53 4 20 7 59 20 86 28 48 14 48 15 10 10 l-40 -5
30 17 c32 18 135 46 172 46 13 0 21 3 18 8 -2 4 7 5 21 2 32 -6 26 -11 -32
-26 -27 -7 -44 -15 -39 -18 6 -3 38 4 73 16 57 19 62 23 50 39 -12 16 -19 17
-62 7 -64 -14 -71 -6 -9 10 72 18 73 19 73 31 0 7 -9 9 -26 5 -15 -4 -40 -9
-58 -12 l-31 -5 30 15 c17 8 26 15 22 15 -4 1 -3 10 3 21 6 11 16 19 22 17 6
-1 13 4 16 12 3 8 0 11 -7 7 -6 -4 -9 -2 -5 7 5 14 -35 118 -45 116 -3 0 -49
-12 -101 -25z m20 -44 c13 -8 13 -11 -2 -27 -21 -20 -45 -5 -35 21 7 18 16 20
37 6z m-312 -67 c5 -17 -26 -29 -40 -15 -6 6 -7 15 -3 22 9 14 37 9 43 -7z
m302 7 c0 -5 -2 -10 -4 -10 -3 0 -8 5 -11 10 -3 6 -1 10 4 10 6 0 11 -4 11
-10z m-42 -43 c3 -12 -3 -17 -22 -17 -25 0 -35 18 -19 34 12 12 38 2 41 -17z
m-772 -51 c-3 -14 -2 -28 4 -31 13 -8 13 -42 -1 -50 -16 -10 -24 4 -11 17 19
19 14 32 -5 17 -16 -13 -17 -12 -5 3 8 10 9 19 3 22 -5 3 -12 0 -14 -6 -4 -10
-6 -10 -6 0 -1 7 6 15 14 18 8 4 15 12 15 20 0 8 3 14 6 14 3 0 3 -11 0 -24z
m-54 -11 c-4 -5 -5 -19 -3 -30 l3 -20 -17 20 c-9 11 -13 14 -10 7 7 -13 -37
-62 -56 -62 -13 0 -12 4 18 53 19 33 32 44 49 43 12 0 19 -5 16 -11z m88 -15
c0 -5 -2 -10 -4 -10 -3 0 -8 5 -11 10 -3 6 -1 10 4 10 6 0 11 -4 11 -10z m500
-40 c0 -11 -6 -20 -14 -20 -18 0 -29 16 -21 30 11 18 35 11 35 -10z m-596 -8
c3 -5 -1 -9 -9 -9 -8 0 -12 4 -9 9 3 4 7 8 9 8 2 0 6 -4 9 -8z m-1258 -23 c9
-15 -11 -33 -30 -26 -9 4 -13 13 -10 22 7 17 30 20 40 4z m1839 -39 c-28 -12
-37 -12 -30 0 3 6 16 10 28 9 21 0 21 -1 2 -9z m-1515 -305 c0 -8 -4 -15 -10
-15 -5 0 -10 7 -10 15 0 8 5 15 10 15 6 0 10 -7 10 -15z m695 -1 c1 -19 26
-54 36 -49 5 4 9 -1 9 -9 0 -9 0 -19 1 -23 2 -19 -20 -11 -26 9 -4 13 -16 35
-26 50 -11 14 -19 29 -19 33 0 10 25 0 25 -11z m-1740 -9 c5 0 14 -16 20 -36
5 -20 15 -43 22 -50 6 -8 8 -20 4 -27 -5 -8 -20 12 -42 57 -19 38 -30 66 -24
63 5 -4 14 -7 20 -7z m995 -1 c0 -8 -4 -12 -10 -9 -5 3 -10 10 -10 16 0 5 5 9
10 9 6 0 10 -7 10 -16z m-47 -8 c4 -10 1 -13 -9 -9 -7 3 -14 9 -14 14 0 14 17
10 23 -5z m107 -16 c0 -5 -2 -10 -4 -10 -3 0 -8 5 -11 10 -3 6 -1 10 4 10 6 0
11 -4 11 -10z m-210 -15 c0 -8 -2 -15 -4 -15 -2 0 -6 7 -10 15 -3 8 -1 15 4
15 6 0 10 -7 10 -15z m160 -21 c0 -8 -4 -14 -10 -14 -5 0 -10 9 -10 21 0 11 5
17 10 14 6 -3 10 -13 10 -21z m-1010 -38 c0 -26 -6 -18 -14 19 -5 22 -4 26 4
15 5 -8 10 -24 10 -34z m1080 12 c0 -17 -28 -7 -33 11 -4 17 -2 18 14 8 10 -6
19 -15 19 -19z m-1213 2 c4 -11 2 -12 -5 -2 -5 7 -16 10 -25 6 -10 -3 -17 -1
-17 6 0 17 43 8 47 -10z m1019 8 c5 -7 3 -8 -6 -3 -10 6 -12 4 -7 -8 8 -21 -6
-22 -22 -3 -9 11 -9 15 1 19 21 9 26 8 34 -5z m-46 -23 c11 -13 10 -14 -4 -9
-9 3 -16 10 -16 15 0 13 6 11 20 -6z m169 -59 c2 -62 -1 -76 -16 -85 -14 -8
-15 -13 -5 -19 10 -7 10 -20 1 -63 -15 -71 -27 -92 -46 -85 -12 5 -13 3 -5 -7
9 -10 7 -26 -7 -63 -18 -45 -23 -51 -77 -71 -32 -13 -58 -23 -59 -23 0 0 -1
23 -2 50 0 27 3 47 8 44 5 -3 9 2 9 11 0 8 -7 18 -15 21 -8 4 -13 10 -10 14 3
5 -2 15 -10 23 -18 19 -19 28 -2 24 8 -1 13 12 13 38 l2 40 -7 -40 c-9 -60
-21 -29 -27 72 -4 58 -2 83 4 74 8 -10 11 -6 17 18 4 17 11 29 16 25 5 -3 9 0
9 5 0 6 5 11 10 11 6 0 10 -7 10 -15 0 -8 6 -14 12 -12 17 3 38 23 38 36 0 15
40 14 41 -1 0 -7 5 -2 10 12 8 20 12 22 19 10 5 -8 10 -25 10 -37 0 -12 6 -25
13 -29 6 -4 9 -4 5 1 -4 4 2 21 14 38 17 23 19 32 9 35 -11 4 -11 6 0 13 8 5
14 9 15 9 1 0 2 -33 3 -74z m-1100 -53 c1 -10 -5 -10 -23 -2 -19 9 -23 17 -20
43 1 17 3 38 4 46 1 16 38 -66 39 -87z m1938 75 c-3 -8 -6 -5 -6 6 -1 11 2 17
5 13 3 -3 4 -12 1 -19z m-2029 -49 c-2 -49 -10 -43 -15 12 -3 27 -1 39 6 34 6
-3 10 -24 9 -46z m32 5 c0 -25 -4 -43 -8 -40 -7 4 -9 69 -3 84 6 14 11 -7 11
-44z m221 23 c-10 -9 -11 -8 -5 6 3 10 9 15 12 12 3 -3 0 -11 -7 -18z m1779
-78 c0 -5 -4 -9 -10 -9 -5 0 -10 7 -10 16 0 8 5 12 10 9 6 -3 10 -10 10 -16z
m-1823 -15 c-3 -3 -12 -4 -19 -1 -8 3 -5 6 6 6 11 1 17 -2 13 -5z m113 -2 c0
-5 -7 -9 -15 -9 -8 0 -12 4 -9 9 3 4 9 8 15 8 5 0 9 -4 9 -8z m599 -97 c7 -50
11 -118 10 -152 -2 -52 -5 -62 -22 -67 -18 -4 -167 10 -172 16 -4 5 -25 97
-25 107 0 6 5 11 11 11 5 0 7 -4 4 -10 -8 -13 28 0 37 14 5 8 8 7 8 -1 0 -7 6
-10 13 -7 11 4 13 28 7 69 -1 6 -5 1 -10 -10 -6 -14 -9 -15 -9 -5 -1 19 -33
48 -48 43 -6 -2 -14 0 -17 6 -4 5 14 9 44 8 32 -1 50 -6 50 -14 0 -6 5 -15 11
-19 8 -5 10 1 5 19 -5 21 1 31 36 61 23 20 45 33 49 29 3 -5 12 -49 18 -98z
m-519 71 c0 -8 -4 -18 -10 -21 -5 -3 -10 3 -10 14 0 12 5 21 10 21 6 0 10 -6
10 -14z m-160 -1 c0 -2 -9 -9 -19 -15 -14 -7 -22 -7 -27 2 -4 7 -3 8 4 4 7 -4
12 -2 12 3 0 6 7 11 15 11 8 0 15 -2 15 -5z m128 -11 c-2 -9 -11 -22 -21 -28
-25 -16 -44 14 -20 32 24 17 45 15 41 -4z m247 7 c3 -5 1 -12 -5 -16 -5 -3
-10 1 -10 9 0 18 6 21 15 7z m-71 -115 c9 -37 14 -72 10 -77 -3 -5 -3 -9 0 -9
2 0 11 14 20 31 13 26 13 29 1 19 -12 -10 -15 -9 -15 6 0 11 -3 37 -5 59 -4
30 -3 35 4 20 9 -18 10 -18 10 -2 1 11 6 15 12 11 6 -3 9 -17 6 -30 -2 -13 -1
-21 3 -19 4 3 10 -22 14 -54 4 -32 13 -67 21 -77 18 -24 18 -17 2 32 -16 49
-12 89 7 71 8 -6 12 -17 9 -23 -2 -6 3 -14 13 -18 14 -5 15 -4 5 8 -9 10 -9
16 -1 21 7 4 14 -2 17 -14 3 -11 9 -19 13 -16 4 3 14 -22 23 -55 l15 -60 -44
0 c-40 0 -50 -5 -91 -47 -37 -38 -48 -44 -51 -30 -4 21 -16 22 -32 2 -7 -8
-18 -15 -25 -15 -14 0 -159 311 -148 320 5 4 28 12 53 19 25 8 61 19 80 26 33
12 36 11 47 -9 6 -12 19 -53 27 -90z m116 83 c0 -14 -17 -10 -23 5 -4 10 -1
13 9 9 7 -3 14 -9 14 -14z m-100 7 c0 -3 -4 -8 -10 -11 -5 -3 -10 -1 -10 4 0
6 5 11 10 11 6 0 10 -2 10 -4z m-300 -21 c13 -16 13 -16 -39 -21 -24 -2 -30 0
-20 7 8 5 10 9 4 10 -5 0 -1 4 10 9 28 12 31 12 45 -5z m-187 -32 c4 -19 2
-33 -3 -33 -6 0 -10 17 -10 37 0 43 5 41 13 -4z m47 0 c0 -19 -13 -9 -16 12
-1 8 2 13 7 9 5 -3 9 -12 9 -21z m562 12 c4 -5 8 -23 8 -40 0 -21 -3 -26 -9
-16 -7 11 -9 11 -13 0 -6 -17 -17 -8 -22 17 -3 11 -7 27 -11 37 -6 14 -3 17
16 15 13 -2 27 -7 31 -13z m48 -56 c0 -6 -4 -7 -10 -4 -5 3 -10 11 -10 16 0 6
5 7 10 4 6 -3 10 -11 10 -16z m-650 -9 c0 -5 -4 -10 -10 -10 -5 0 -10 5 -10
10 0 6 5 10 10 10 6 0 10 -4 10 -10z m49 -22 c12 -15 11 -18 -3 -18 -10 0 -16
8 -16 22 0 12 1 19 3 17 1 -2 9 -12 16 -21z m1907 -37 c-12 -19 -24 -12 -19
10 4 13 9 17 15 11 6 -6 7 -15 4 -21z m-1921 -9 c-3 -3 -11 0 -18 7 -9 10 -8
11 6 5 10 -3 15 -9 12 -12z m42 -36 c-2 -6 -9 -1 -16 12 -6 12 -9 28 -5 34 8
13 27 -28 21 -46z m1923 50 c0 -11 -19 -15 -25 -6 -3 5 1 10 9 10 9 0 16 -2
16 -4z m-1129 -109 c-13 -13 -15 14 -3 64 l7 34 3 -44 c2 -24 -2 -49 -7 -54z
m-830 69 c-9 -11 -9 -20 -2 -35 6 -11 7 -22 2 -25 -11 -7 -21 17 -21 50 0 15
6 24 16 24 13 0 14 -3 5 -14z m1787 -3 c-6 -7 -14 -11 -18 -8 -5 3 -12 1 -15
-5 -4 -6 -1 -9 6 -8 6 2 14 -3 16 -9 3 -8 -4 -13 -16 -13 -15 0 -21 6 -21 23
0 30 3 32 33 32 19 0 23 -3 15 -12z m196 -1 c3 -5 -1 -9 -9 -9 -8 0 -15 4 -15
9 0 4 4 8 9 8 6 0 12 -4 15 -8z m57 -35 c-6 -8 -7 -18 -3 -22 4 -5 1 -5 -5 -1
-19 10 -16 36 3 36 13 0 14 -3 5 -13z m-450 -4 c8 -46 6 -51 -15 -43 -12 4
-20 14 -18 21 2 10 0 10 -12 -1 -9 -7 -16 -8 -16 -3 0 17 59 41 61 26z m35
-33 c5 -13 6 -13 14 0 6 8 10 11 10 6 0 -5 6 -3 14 3 10 8 16 9 21 1 4 -6 1
-9 -7 -8 -8 2 -12 -5 -11 -17 1 -11 0 -14 -3 -7 -8 17 -25 15 -18 -3 10 -26
-3 -16 -24 17 -11 18 -18 37 -14 42 3 6 7 4 10 -4 2 -8 6 -22 8 -30z m369 0
c3 -5 1 -10 -4 -10 -6 0 -11 5 -11 10 0 6 2 10 4 10 3 0 8 -4 11 -10z m-250
-9 c3 -5 2 -12 -3 -15 -5 -3 -9 1 -9 9 0 17 3 19 12 6z m-165 -97 c0 -2 -9 0
-20 6 -11 6 -20 13 -20 16 0 2 9 0 20 -6 11 -6 20 -13 20 -16z m-1190 6 c11
-7 12 -12 3 -21 -8 -8 -14 -6 -22 10 -12 22 -5 27 19 11z m1083 -45 c-3 -9 -8
-14 -10 -11 -3 3 -2 9 2 15 9 16 15 13 8 -4z m120 -40 c-3 -9 -8 -14 -10 -11
-3 3 -2 9 2 15 9 16 15 13 8 -4z m282 -25 c3 -5 2 -10 -4 -10 -5 0 -13 5 -16
10 -3 6 -2 10 4 10 5 0 13 -4 16 -10z m-17 -35 c-3 -3 -9 2 -12 12 -6 14 -5
15 5 6 7 -7 10 -15 7 -18z m-1555 -136 c-8 -8 -13 -7 -18 2 -5 8 -4 10 3 5 7
-4 12 -2 12 5 0 7 3 9 7 6 4 -4 2 -12 -4 -18z"/>
<path d="M1281 1414 c0 -11 3 -14 6 -6 3 7 2 16 -1 19 -3 4 -6 -2 -5 -13z"/>
<path d="M1252 1350 c0 -14 2 -19 5 -12 2 6 2 18 0 25 -3 6 -5 1 -5 -13z"/>
<path d="M1366 1271 c-4 -7 -5 -15 -2 -18 9 -9 19 4 14 18 -4 11 -6 11 -12 0z"/>
<path d="M1304 1227 c3 -24 0 -37 -7 -37 -9 0 -9 -2 -1 -8 6 -4 13 -12 15 -19
3 -9 9 -9 19 -3 12 8 12 12 2 18 -7 5 -15 24 -17 42 -3 18 -7 35 -10 38 -3 3
-4 -11 -1 -31z"/>
<path d="M1365 1188 c-2 -7 -5 -26 -7 -43 -2 -24 -8 -30 -25 -29 -19 0 -22 -3
-16 -25 7 -32 13 -40 13 -18 0 10 8 17 20 17 23 0 26 7 33 68 5 38 -8 59 -18
30z"/>
<path d="M1185 1331 c-4 -7 -4 -24 -1 -39 l6 -27 -14 25 c-15 24 -15 24 -9
-14 4 -28 3 -37 -5 -32 -7 4 -12 1 -12 -8 0 -9 7 -16 15 -16 8 0 14 3 14 8 -3
18 2 33 10 28 4 -3 8 5 7 17 -1 12 2 25 7 28 6 4 5 14 0 24 -7 13 -12 14 -18
6z"/>
<path d="M1145 1270 c3 -5 8 -10 11 -10 2 0 4 5 4 10 0 6 -5 10 -11 10 -5 0
-7 -4 -4 -10z"/>
<path d="M1210 1153 c0 -5 5 -15 10 -23 7 -12 9 -10 7 8 -1 19 -17 33 -17 15z"/>
<path d="M1129 1113 c-13 -16 -12 -17 3 -5 21 17 38 8 38 -20 0 -16 -5 -19
-25 -16 -30 6 -34 -8 -5 -17 39 -12 66 35 38 63 -17 17 -33 15 -49 -5z"/>
<path d="M1206 1068 c3 -5 10 -6 15 -3 13 9 11 12 -6 12 -8 0 -12 -4 -9 -9z"/>
<path d="M812 1250 c0 -14 2 -19 5 -12 2 6 2 18 0 25 -3 6 -5 1 -5 -13z"/>
<path d="M800 1006 c0 -2 7 -9 15 -16 9 -7 15 -8 15 -2 0 5 -7 12 -15 16 -8 3
-15 4 -15 2z"/>
<path d="M1958 2263 c7 -3 16 -2 19 1 4 3 -2 6 -13 5 -11 0 -14 -3 -6 -6z"/>
<path d="M2541 2153 c-20 -17 -21 -19 -6 -38 9 -11 14 -14 10 -7 -4 7 3 16 17
21 21 9 21 10 3 11 -20 1 -20 1 -1 15 11 8 15 15 9 15 -6 0 -20 -8 -32 -17z"/>
<path d="M728 2106 c-21 -15 -24 -40 -5 -33 6 2 12 8 12 13 0 5 4 15 8 22 10
15 7 15 -15 -2z"/>
<path d="M3470 2110 c0 -5 5 -10 11 -10 5 0 7 5 4 10 -3 6 -8 10 -11 10 -2 0
-4 -4 -4 -10z"/>
<path d="M517 2055 c-16 -11 -15 -12 8 -12 14 0 25 4 25 9 0 5 6 6 13 2 6 -4
8 -3 4 1 -12 14 -32 14 -50 0z"/>
<path d="M670 2054 c0 -8 5 -12 10 -9 6 4 8 11 5 16 -9 14 -15 11 -15 -7z"/>
<path d="M437 2017 c-21 -12 -34 -23 -29 -25 9 -3 82 36 82 44 0 8 -15 2 -53
-19z"/>
<path d="M2640 2005 c-11 -13 -10 -14 4 -9 9 3 16 10 16 15 0 13 -6 11 -20 -6z"/>
<path d="M3080 1903 c-8 -3 -26 -10 -39 -15 -13 -5 -22 -11 -19 -13 3 -3 25 3
49 14 40 18 46 28 9 14z"/>
<path d="M1364 1842 c2 -19 7 -36 10 -40 10 -10 6 42 -5 58 -7 11 -9 7 -5 -18z"/>
<path d="M1948 1803 c7 -3 16 -2 19 1 4 3 -2 6 -13 5 -11 0 -14 -3 -6 -6z"/>
<path d="M1810 1695 c0 -8 4 -15 10 -15 5 0 7 7 4 15 -4 8 -8 15 -10 15 -2 0
-4 -7 -4 -15z"/>
<path d="M355 1640 c-3 -5 -1 -10 4 -10 6 0 11 5 11 10 0 6 -2 10 -4 10 -3 0
-8 -4 -11 -10z"/>
<path d="M1892 1643 c-10 -4 -10 -8 -1 -19 6 -8 16 -14 21 -14 7 0 6 5 -1 13
-6 8 -8 17 -4 20 7 8 4 8 -15 0z"/>
<path d="M320 1629 c0 -5 5 -7 10 -4 6 3 10 8 10 11 0 2 -4 4 -10 4 -5 0 -10
-5 -10 -11z"/>
<path d="M1640 1594 c0 -8 5 -12 10 -9 6 3 10 10 10 16 0 5 -4 9 -10 9 -5 0
-10 -7 -10 -16z"/>
<path d="M175 1370 c-3 -5 1 -10 10 -10 9 0 13 5 10 10 -3 6 -8 10 -10 10 -2
0 -7 -4 -10 -10z"/>
<path d="M2580 1186 c0 -9 7 -12 20 -9 11 3 17 9 14 14 -8 14 -34 10 -34 -5z"/>
<path d="M250 1169 c0 -11 4 -18 10 -14 5 3 7 12 3 20 -7 21 -13 19 -13 -6z"/>
<path d="M2498 1163 c6 -2 18 -2 25 0 6 3 1 5 -13 5 -14 0 -19 -2 -12 -5z"/>
<path d="M2565 1139 c-7 -11 -2 -40 15 -85 9 -22 13 -24 25 -14 20 16 19 55
-1 85 -18 27 -29 31 -39 14z"/>
<path d="M546 1032 c-2 -4 -1 -14 5 -22 7 -12 9 -10 9 8 0 23 -5 28 -14 14z"/>
<path d="M219 1009 l25 -20 -28 7 c-22 5 -28 4 -24 -7 7 -22 39 -16 57 11 9
13 11 21 4 17 -6 -4 -14 -3 -18 3 -3 5 -14 10 -23 10 -14 -1 -12 -5 7 -21z"/>
<path d="M318 938 c-2 -13 -9 -22 -16 -20 -19 3 -14 -15 6 -20 15 -4 19 2 20
28 3 38 -5 46 -10 12z"/>
<path d="M436 921 c-4 -7 -5 -15 -2 -18 9 -9 19 4 14 18 -4 11 -6 11 -12 0z"/>
<path d="M2151 914 c0 -11 3 -14 6 -6 3 7 2 16 -1 19 -3 4 -6 -2 -5 -13z"/>
<path d="M364 895 c3 -8 1 -15 -4 -15 -20 0 -8 -26 23 -50 29 -22 30 -22 13
-2 -17 20 -15 27 7 23 14 -2 7 17 -9 23 -8 3 -12 2 -9 -3 3 -5 1 -12 -5 -16
-11 -7 -13 5 -4 29 3 8 12 12 21 9 11 -4 14 -2 9 5 -11 18 -49 15 -42 -3z"/>
<path d="M763 899 c3 -9 0 -22 -6 -28 -8 -8 -8 -11 0 -11 16 0 23 25 11 41 -8
11 -9 11 -5 -2z"/>
<path d="M2240 894 c0 -8 6 -11 15 -8 8 4 15 9 15 13 0 4 -7 8 -15 8 -8 0 -15
-6 -15 -13z"/>
<path d="M420 861 c0 -12 5 -21 10 -21 6 0 10 6 10 14 0 8 -4 18 -10 21 -5 3
-10 -3 -10 -14z"/>
</g>
</svg>
